<?xml version="1.0" encoding="UTF-8"?>
<!DOCTYPE svg PUBLIC "-//W3C//DTD SVG 1.1//EN" "http://www.w3.org/Graphics/SVG/1.1/DTD/svg11.dtd">
<!-- Creator: CorelDRAW 2019 (64-Bit) -->
<svg xmlns="http://www.w3.org/2000/svg" xml:space="preserve" width="150px" height="33px" version="1.1" style="shape-rendering:geometricPrecision; text-rendering:geometricPrecision; image-rendering:optimizeQuality; fill-rule:evenodd; clip-rule:evenodd"
viewBox="0 0 290.35 63.99"
 xmlns:xlink="http://www.w3.org/1999/xlink">
 <defs>
  <style type="text/css">
   <![CDATA[
    .fil1 {fill:#EEEEEE}
    .fil0 {fill:#EEEEEE;fill-rule:nonzero}
   ]]>
  </style>
 </defs>
 <g id="Capa_x0020_1">
  <metadata id="CorelCorpID_0Corel-Layer"/>
  <g id="_2330229650320">
   <polygon class="fil0" points="0,36.93 0,28.01 40,6.25 40,15.82 8.31,32.53 40,49.45 40,59.02 "/>
   <path id="brush-svgrepo-com.svg" class="fil1" d="M68.04 11.34c-1.03,3.86 -3.83,14.52 -6.05,22.98l-9.35 -3.57c3.43,-7.78 7.68,-17.41 9.23,-20.87 2.75,-6.16 5.69,-10.41 7.01,-9.83 0.8,0.3 0.96,4.51 -0.84,11.29zm-6.54 24.86c-0.86,3.27 -1.6,6.1 -2.05,7.83l-10.94 -3.92c0.73,-1.66 1.94,-4.41 3.35,-7.59l9.64 3.68 0 0zm-2.55 9.72l-0.01 -0.02c3.3,18.87 -20.65,18.09 -20.65,18.09 0,0 8.67,-2.71 5.18,-10.35 -3.38,-7.41 3.84,-11.51 4.29,-11.76l11.2 4.02c0,0 -0.01,0.02 -0.01,0.02l0 0z"/>
   <polygon class="fil0" points="111.5,36.93 111.5,28.01 71.5,6.25 71.5,15.82 103.19,32.53 71.5,49.45 71.5,59.02 "/>
  </g>
  <g id="_2330229650960">
   <path class="fil0" d="M159.48 34.85c-1.58,3.3 -3.84,5.82 -6.77,7.55 -2.93,1.73 -6.39,2.6 -10.39,2.6 -2.58,0 -4.98,-0.37 -7.18,-1.1 -2.21,-0.73 -4.18,-1.82 -5.94,-3.25 -2.35,-1.9 -4.12,-4.12 -5.3,-6.66 -1.17,-2.54 -1.76,-5.34 -1.76,-8.43 0,-5.89 1.92,-10.7 5.75,-14.47 3.84,-3.75 8.77,-5.63 14.8,-5.63 3.46,0 6.48,0.69 9.06,2.07 2.57,1.39 4.8,3.53 6.69,6.43l-4.81 3.54c-1.15,-2.45 -2.56,-4.29 -4.21,-5.52 -1.65,-1.22 -3.55,-1.83 -5.68,-1.83 -3.26,0 -5.78,1.31 -7.57,3.94 -1.79,2.63 -2.69,6.34 -2.69,11.15 0,4.43 1.03,8 3.08,10.71 2.06,2.71 4.75,4.07 8.09,4.07 2.1,0 4.02,-0.68 5.76,-2.04 1.74,-1.37 3.25,-3.39 4.54,-6.07l4.53 2.94z"/>
   <polygon id="1" class="fil0" points="187.39,22.42 187.39,6.27 197.99,6.27 197.99,44.08 187.39,44.08 187.39,27.52 176.05,27.52 176.05,44.08 165.45,44.08 165.45,6.27 176.05,6.27 176.05,22.42 "/>
   <path id="2" class="fil0" d="M213.17 28.1l9.33 0 -4.89 -13.55 -4.44 13.55zm-10.77 15.98l12.98 -37.81 10.23 0 13.84 37.81 -11.25 0 -3.98 -11.18 -12.69 0 -3.76 11.18 -5.37 0z"/>
   <path class="fil0" d="M122.44 59.57l0 -9.81 3.38 0c0.77,0 1.35,0.04 1.75,0.13 0.56,0.13 1.04,0.37 1.44,0.71 0.52,0.44 0.9,0.99 1.16,1.68 0.26,0.68 0.39,1.46 0.39,2.33 0,0.75 -0.09,1.41 -0.26,1.98 -0.18,0.58 -0.4,1.06 -0.67,1.43 -0.28,0.38 -0.57,0.68 -0.9,0.89 -0.32,0.22 -0.71,0.38 -1.17,0.5 -0.46,0.11 -0.98,0.16 -1.58,0.16l-3.54 0zm1.3 -1.15l2.1 0c0.64,0 1.15,-0.06 1.52,-0.18 0.37,-0.12 0.66,-0.29 0.88,-0.51 0.3,-0.31 0.54,-0.72 0.72,-1.24 0.17,-0.53 0.25,-1.16 0.25,-1.9 0,-1.03 -0.17,-1.82 -0.5,-2.37 -0.34,-0.55 -0.75,-0.92 -1.23,-1.11 -0.35,-0.14 -0.91,-0.2 -1.68,-0.2l-2.06 0 0 7.51z"/>
   <path id="1" class="fil0" d="M136.31 51.13l0 -1.37 1.2 0 0 1.37 -1.2 0zm0 8.44l0 -7.11 1.2 0 0 7.11 -1.2 0z"/>
   <path id="2" class="fil0" d="M142.99 57.45l1.19 -0.19c0.07,0.47 0.25,0.84 0.56,1.09 0.31,0.26 0.74,0.39 1.28,0.39 0.56,0 0.97,-0.12 1.24,-0.34 0.27,-0.23 0.4,-0.49 0.4,-0.79 0,-0.28 -0.12,-0.49 -0.36,-0.65 -0.17,-0.1 -0.58,-0.24 -1.23,-0.41 -0.88,-0.22 -1.49,-0.41 -1.84,-0.57 -0.34,-0.17 -0.6,-0.39 -0.77,-0.68 -0.18,-0.28 -0.27,-0.6 -0.27,-0.95 0,-0.32 0.08,-0.61 0.22,-0.88 0.15,-0.27 0.34,-0.49 0.59,-0.67 0.19,-0.14 0.45,-0.25 0.77,-0.35 0.32,-0.1 0.67,-0.14 1.04,-0.14 0.56,0 1.04,0.08 1.46,0.24 0.43,0.16 0.74,0.38 0.94,0.65 0.2,0.28 0.34,0.65 0.41,1.11l-1.18 0.16c-0.05,-0.37 -0.2,-0.66 -0.46,-0.87 -0.26,-0.2 -0.62,-0.31 -1.09,-0.31 -0.55,0 -0.94,0.09 -1.18,0.28 -0.23,0.18 -0.35,0.39 -0.35,0.64 0,0.15 0.05,0.3 0.14,0.42 0.1,0.13 0.26,0.24 0.47,0.32 0.12,0.05 0.47,0.15 1.06,0.31 0.85,0.23 1.44,0.41 1.78,0.56 0.34,0.14 0.6,0.35 0.8,0.63 0.19,0.28 0.29,0.62 0.29,1.03 0,0.4 -0.12,0.78 -0.35,1.13 -0.24,0.36 -0.58,0.63 -1.02,0.82 -0.44,0.2 -0.94,0.29 -1.5,0.29 -0.92,0 -1.63,-0.19 -2.11,-0.57 -0.49,-0.38 -0.8,-0.95 -0.93,-1.7z"/>
   <path id="3" class="fil0" d="M159.29 57.27l1.25 0.16c-0.19,0.73 -0.56,1.29 -1.09,1.69 -0.53,0.4 -1.2,0.6 -2.03,0.6 -1.04,0 -1.86,-0.32 -2.47,-0.96 -0.61,-0.63 -0.91,-1.53 -0.91,-2.69 0,-1.19 0.31,-2.12 0.92,-2.77 0.62,-0.67 1.41,-0.99 2.39,-0.99 0.95,0 1.73,0.32 2.33,0.96 0.6,0.65 0.9,1.56 0.9,2.73 0,0.07 0,0.18 -0.01,0.32l-5.3 0c0.05,0.78 0.27,1.38 0.67,1.8 0.39,0.41 0.89,0.62 1.48,0.62 0.44,0 0.82,-0.12 1.13,-0.35 0.31,-0.24 0.56,-0.61 0.74,-1.12zm-3.95 -1.93l3.97 0c-0.06,-0.6 -0.21,-1.05 -0.46,-1.35 -0.38,-0.46 -0.88,-0.7 -1.49,-0.7 -0.55,0 -1.02,0.19 -1.39,0.56 -0.38,0.37 -0.59,0.86 -0.63,1.49z"/>
   <path id="4" class="fil0" d="M166.18 59.57l0 -7.11 1.08 0 0 1.01c0.52,-0.78 1.28,-1.16 2.26,-1.16 0.43,0 0.83,0.07 1.18,0.23 0.36,0.15 0.63,0.35 0.81,0.6 0.18,0.25 0.3,0.55 0.38,0.89 0.04,0.23 0.06,0.62 0.06,1.17l0 4.37 -1.2 0 0 -4.32c0,-0.49 -0.05,-0.86 -0.14,-1.1 -0.1,-0.24 -0.26,-0.44 -0.5,-0.59 -0.24,-0.14 -0.52,-0.21 -0.84,-0.21 -0.51,0 -0.95,0.16 -1.33,0.49 -0.37,0.32 -0.55,0.94 -0.55,1.85l0 3.88 -1.21 0zm0.84 -7.98c-0.01,-0.46 0.12,-0.82 0.38,-1.1 0.25,-0.27 0.58,-0.41 0.98,-0.41 0.27,0 0.65,0.12 1.12,0.36 0.27,0.13 0.48,0.19 0.63,0.19 0.15,0 0.26,-0.04 0.33,-0.11 0.08,-0.08 0.13,-0.23 0.16,-0.46l0.87 0c-0.02,0.5 -0.15,0.88 -0.39,1.14 -0.24,0.25 -0.55,0.38 -0.92,0.38 -0.28,0 -0.65,-0.13 -1.11,-0.38 -0.3,-0.16 -0.52,-0.24 -0.66,-0.24 -0.15,0 -0.27,0.05 -0.36,0.16 -0.1,0.11 -0.15,0.26 -0.14,0.47l-0.89 0z"/>
   <path id="5" class="fil0" d="M177.47 56.01c0,-1.31 0.36,-2.28 1.1,-2.92 0.61,-0.52 1.35,-0.78 2.23,-0.78 0.98,0 1.78,0.32 2.4,0.96 0.62,0.63 0.93,1.52 0.93,2.64 0,0.92 -0.14,1.64 -0.41,2.16 -0.27,0.52 -0.67,0.93 -1.2,1.22 -0.52,0.29 -1.1,0.43 -1.72,0.43 -0.99,0 -1.8,-0.31 -2.41,-0.95 -0.62,-0.64 -0.92,-1.56 -0.92,-2.76zm1.23 0.01c0,0.91 0.2,1.59 0.6,2.04 0.4,0.45 0.9,0.68 1.5,0.68 0.6,0 1.1,-0.23 1.5,-0.68 0.4,-0.46 0.6,-1.15 0.6,-2.08 0,-0.88 -0.2,-1.54 -0.6,-1.99 -0.4,-0.46 -0.9,-0.68 -1.5,-0.68 -0.6,0 -1.1,0.22 -1.5,0.67 -0.4,0.45 -0.6,1.13 -0.6,2.04z"/>
   <path id="6" class="fil0" d="M206.29 59.57l-2.59 -9.81 1.35 0 1.47 6.43c0.16,0.68 0.3,1.35 0.42,2.01 0.26,-1.05 0.41,-1.65 0.46,-1.81l1.85 -6.63 1.57 0 1.41 4.97c0.34,1.23 0.6,2.39 0.76,3.47 0.13,-0.62 0.3,-1.33 0.5,-2.13l1.54 -6.31 1.3 0 -2.69 9.81 -1.26 0 -2.06 -7.48c-0.17,-0.62 -0.28,-1.01 -0.32,-1.15 -0.11,0.45 -0.21,0.83 -0.3,1.15l-2.06 7.48 -1.35 0z"/>
   <path id="7" class="fil0" d="M226.11 57.27l1.24 0.16c-0.19,0.73 -0.55,1.29 -1.08,1.69 -0.53,0.4 -1.21,0.6 -2.04,0.6 -1.03,0 -1.86,-0.32 -2.46,-0.96 -0.61,-0.63 -0.92,-1.53 -0.92,-2.69 0,-1.19 0.31,-2.12 0.93,-2.77 0.61,-0.67 1.41,-0.99 2.39,-0.99 0.95,0 1.72,0.32 2.32,0.96 0.6,0.65 0.91,1.56 0.91,2.73 0,0.07 -0.01,0.18 -0.01,0.32l-5.3 0c0.04,0.78 0.26,1.38 0.66,1.8 0.4,0.41 0.89,0.62 1.48,0.62 0.45,0 0.82,-0.12 1.13,-0.35 0.32,-0.24 0.56,-0.61 0.75,-1.12zm-3.95 -1.93l3.96 0c-0.05,-0.6 -0.21,-1.05 -0.46,-1.35 -0.38,-0.46 -0.88,-0.7 -1.49,-0.7 -0.55,0 -1.01,0.19 -1.39,0.56 -0.37,0.37 -0.58,0.86 -0.62,1.49z"/>
   <path id="8" class="fil0" d="M234.1 59.57l-1.12 0 0 -9.81 1.21 0 0 3.5c0.51,-0.64 1.15,-0.95 1.95,-0.95 0.43,0 0.85,0.08 1.24,0.26 0.39,0.17 0.71,0.42 0.96,0.74 0.25,0.32 0.45,0.71 0.59,1.16 0.15,0.44 0.22,0.93 0.22,1.44 0,1.21 -0.3,2.15 -0.9,2.82 -0.61,0.66 -1.33,0.99 -2.17,0.99 -0.84,0 -1.5,-0.35 -1.98,-1.04l0 0.89zm-0.01 -3.61c0,0.85 0.12,1.47 0.35,1.85 0.38,0.62 0.89,0.93 1.54,0.93 0.52,0 0.98,-0.23 1.36,-0.69 0.38,-0.46 0.58,-1.14 0.58,-2.04 0,-0.93 -0.19,-1.61 -0.56,-2.05 -0.36,-0.45 -0.81,-0.67 -1.33,-0.67 -0.53,0 -0.98,0.23 -1.36,0.69 -0.39,0.46 -0.58,1.12 -0.58,1.98z"/>
   <path id="9" class="fil0" d="M189.18 57.45l1.19 -0.19c0.07,0.47 0.26,0.84 0.56,1.09 0.31,0.26 0.74,0.39 1.29,0.39 0.55,0 0.97,-0.12 1.24,-0.34 0.26,-0.23 0.4,-0.49 0.4,-0.79 0,-0.28 -0.12,-0.49 -0.36,-0.65 -0.17,-0.1 -0.58,-0.24 -1.24,-0.41 -0.88,-0.22 -1.49,-0.41 -1.83,-0.57 -0.34,-0.17 -0.6,-0.39 -0.78,-0.68 -0.17,-0.28 -0.26,-0.6 -0.26,-0.95 0,-0.32 0.07,-0.61 0.21,-0.88 0.15,-0.27 0.35,-0.49 0.6,-0.67 0.18,-0.14 0.44,-0.25 0.76,-0.35 0.33,-0.1 0.67,-0.14 1.04,-0.14 0.56,0 1.05,0.08 1.47,0.24 0.42,0.16 0.73,0.38 0.93,0.65 0.2,0.28 0.34,0.65 0.42,1.11l-1.18 0.16c-0.05,-0.37 -0.21,-0.66 -0.47,-0.87 -0.25,-0.2 -0.61,-0.31 -1.08,-0.31 -0.55,0 -0.95,0.09 -1.18,0.28 -0.24,0.18 -0.36,0.39 -0.36,0.64 0,0.15 0.05,0.3 0.15,0.42 0.1,0.13 0.25,0.24 0.46,0.32 0.12,0.05 0.47,0.15 1.06,0.31 0.85,0.23 1.45,0.41 1.79,0.56 0.33,0.14 0.6,0.35 0.79,0.63 0.2,0.28 0.29,0.62 0.29,1.03 0,0.4 -0.11,0.78 -0.35,1.13 -0.24,0.36 -0.57,0.63 -1.02,0.82 -0.44,0.2 -0.94,0.29 -1.5,0.29 -0.92,0 -1.63,-0.19 -2.11,-0.57 -0.49,-0.38 -0.79,-0.95 -0.93,-1.7z"/>
  </g>
  <path class="fil0" d="M276.93 33.18c-2.83,0 -5.25,-0.54 -7.26,-1.62 -2.02,-1.08 -3.55,-2.64 -4.6,-4.7 -1.05,-2.04 -1.58,-4.51 -1.58,-7.4l0 0c0,-2.89 0.53,-5.35 1.58,-7.4 1.05,-2.05 2.58,-3.61 4.58,-4.68 2.01,-1.08 4.43,-1.61 7.28,-1.61 2.84,0 5.26,0.53 7.26,1.61 2.01,1.07 3.54,2.63 4.58,4.68 1.06,2.05 1.58,4.51 1.58,7.4l0 0c0,2.89 -0.52,5.36 -1.58,7.4 -1.04,2.06 -2.58,3.62 -4.59,4.7 -2.01,1.08 -4.43,1.62 -7.25,1.62zm0.48 -6.48c-2.14,0 -3.8,-0.61 -4.98,-1.83 -1.18,-1.22 -1.76,-2.94 -1.76,-5.14l0 -0.8c0,-2.19 0.58,-3.89 1.76,-5.09 1.18,-1.21 2.84,-1.81 4.98,-1.81 1.08,0 2.05,0.19 2.92,0.58 0.87,0.38 1.62,0.94 2.25,1.68l0 0 -2.06 2.75 0 0c-0.52,-0.46 -1.02,-0.8 -1.51,-1.02 -0.49,-0.22 -1.02,-0.33 -1.58,-0.33 -0.94,0 -1.67,0.29 -2.18,0.86 -0.51,0.56 -0.77,1.36 -0.77,2.38l0 0.8c0,1.1 0.26,1.94 0.77,2.54 0.51,0.6 1.24,0.9 2.18,0.9 0.59,0 1.14,-0.13 1.63,-0.39 0.5,-0.26 1.05,-0.67 1.66,-1.25l0 0 2.08 2.73 0 0c-0.68,0.8 -1.47,1.41 -2.36,1.81 -0.89,0.42 -1.9,0.63 -3.03,0.63zm-0.48 2.84c2.03,0 3.79,-0.4 5.25,-1.2 1.47,-0.8 2.59,-1.95 3.37,-3.46 0.77,-1.51 1.16,-3.31 1.16,-5.42l0 0c0,-2.16 -0.38,-4.01 -1.16,-5.54 -0.76,-1.54 -1.88,-2.72 -3.34,-3.53 -1.47,-0.8 -3.23,-1.2 -5.28,-1.2 -2.07,0 -3.82,0.4 -5.29,1.2 -1.46,0.81 -2.58,1.99 -3.35,3.53 -0.77,1.53 -1.15,3.38 -1.15,5.54l0 0c0,2.12 0.38,3.93 1.15,5.44 0.77,1.51 1.89,2.66 3.35,3.46 1.47,0.78 3.22,1.18 5.29,1.18z"/>
 </g>
</svg>
