<?xml version="1.0" encoding="UTF-8"?>
<!DOCTYPE svg PUBLIC "-//W3C//DTD SVG 1.1//EN" "http://www.w3.org/Graphics/SVG/1.1/DTD/svg11.dtd">
<!-- Creator: CorelDRAW 2019 (64-Bit) -->
<svg xmlns="http://www.w3.org/2000/svg" xml:space="preserve" width="70px" height="84px" version="1.1" style="shape-rendering:geometricPrecision; text-rendering:geometricPrecision; image-rendering:optimizeQuality; fill-rule:evenodd; clip-rule:evenodd"
viewBox="0 0 2.61 3.13"
 xmlns:xlink="http://www.w3.org/1999/xlink">
 <defs>
  <style type="text/css">
   <![CDATA[
    .str0 {stroke:#FEFEFE;stroke-width:0.01;stroke-miterlimit:22.9256}
    .fil1 {fill:#EEEEEE}
    .fil0 {fill:#EEEEEE;fill-rule:nonzero}
   ]]>
  </style>
 </defs>
 <g id="Capa_x0020_1">
  <metadata id="CorelCorpID_0Corel-Layer"/>
  <path class="fil0 str0" d="M0.77 3.03l0 -0.55 0.14 0 0 0.55 0 0.09 -0.18 0 0 -0.09 0.04 0zm0 -0.69l0.14 0 0 0.09 -0.14 0 0 -0.09zm0.23 0l0.37 0 0 0.23 -0.23 0.23 0 0.09 0.1 0 0 -0.09 0.13 0 0 0.18 -0.37 0 0 -0.64zm0.24 0.23l0 -0.14 -0.1 0 0 0.23 0.1 -0.09zm0.48 -0.14l-0.07 0 0 0.46 0.07 0 0 0.09 -0.21 0 0 -0.55 -0.07 0 0 -0.09 0.07 0 0 -0.1 0.14 0 0 0.1 0.07 0 0 0.09zm0.21 0.55l-0.14 0 0 -0.5 0.14 0 0 0.5zm0 -0.55l-0.14 0 0 -0.09 0.14 0 0 0.09z"/>
  <path class="fil1" d="M1.28 1.55l0.02 -0.02c0.02,0.02 0.04,0.03 0.06,0.04 0.01,0.02 0.04,0.03 0.05,0.05 -0.01,0.06 -0.07,0.1 -0.12,0.15 -0.04,0.04 -0.07,0.08 -0.1,0.12 -0.02,0.02 -0.02,0.03 -0.04,0.04l0 -0.03c-0.03,0.01 -0.05,0.02 -0.06,0.03 -0.03,0.02 -0.02,0.03 -0.01,0.07 0.02,0.1 0.04,0.05 0.07,0.08 0,0 0.01,0 0.01,0 0.01,0.01 0.01,0.01 0.02,0.01 0.14,0.04 0.14,-0.04 0.33,-0.03 0.01,-0.03 0.02,-0.07 0.02,-0.11l-0.02 0.01c-0.01,-0.09 -0.03,-0.11 -0.04,-0.15 0,-0.07 0.02,-0.12 0.02,-0.18 -0.04,-0.02 -0.17,-0.1 -0.19,-0.13 -0.03,0.01 0,0 -0.03,0.01 -0.01,-0.01 -0.01,-0.02 -0.03,-0.02 0.01,0.02 0.03,0.04 0.04,0.06z"/>
  <path class="fil1" d="M2.19 2c0.02,-0.01 0.05,-0.05 0.06,-0.07l-0.09 -0.03c0,0.03 0.02,0.08 0.03,0.1z"/>
  <path class="fil1" d="M2.2 2.01c0.01,0.03 0.02,0.04 0.04,0.05 0.01,-0.01 0.02,-0.04 0.02,-0.06l-0.06 0.01z"/>
  <path class="fil1" d="M0.16 1.92l0.05 -0.08 -0.06 0.01 0.05 -0.08c0.02,-0.03 0.04,-0.08 0.05,-0.1l-0.06 0.01c0.05,-0.05 0.05,-0.08 0.08,-0.12l0.02 0.01c0,0.01 0,0.01 0,0.02 0.02,0.03 0.05,0.07 0.07,0.09l-0.06 -0.01c0.02,0.06 0.08,0.15 0.1,0.18l-0.05 -0.01c0,0.03 0.05,0.09 0.06,0.1l0.23 0.07 0.25 -0.1c0.01,-0.02 0.02,-0.03 0.04,-0.05 0.02,-0.01 0.04,-0.03 0.05,-0.04l-0.01 -0.02c0.03,0 0.06,-0.02 0.07,-0.04 0.02,-0.02 0.03,-0.05 0.04,-0.07 0.03,-0.05 0.06,-0.11 0.09,-0.14l0.02 0.01c0,0 0,0 0,0.01l0 0c0,-0.05 0,-0.08 -0.01,-0.1 -0.01,0.01 -0.02,0.01 -0.03,0.02 0,0 0,-0.01 0,0 -0.05,0.05 -0.1,0.1 -0.14,0.14 0,0 0,-0.01 0,-0.01 -0.1,0.07 -0.18,0.12 -0.25,0.11 0,0 0.02,-0.01 0.01,-0.01 -0.04,-0.01 -0.11,-0.03 -0.15,-0.07 -0.01,-0.01 0.02,0 0.01,0 -0.02,-0.03 -0.08,-0.08 -0.11,-0.12 0,-0.01 0.02,0 0.02,0 -0.02,-0.03 -0.06,-0.07 -0.08,-0.1 0,-0.01 0.01,0 0.01,0 -0.03,-0.05 -0.08,-0.12 -0.11,-0.17 0.05,0.04 0.1,0.11 0.14,0.15 0,0 0,-0.02 0,-0.02 0.05,0.06 0.09,0.1 0.13,0.14 0,0 -0.01,-0.02 0,-0.02 0.04,0.05 0.09,0.07 0.13,0.09 0,0 -0.01,-0.02 -0.01,-0.02 0.05,0.01 0.1,0.01 0.16,-0.01 0,0 -0.02,0 -0.01,0 0.04,-0.01 0.08,-0.03 0.13,-0.05 0.01,0 -0.03,0 -0.02,0 0.03,-0.02 0.06,-0.03 0.1,-0.05l-0.03 0 0.06 -0.05c-0.01,-0.01 -0.03,-0.03 -0.03,-0.07 -0.01,0 -0.01,0 -0.01,0l-0.01 0.02c-0.01,-0.04 -0.02,-0.11 0.01,-0.15l0.07 -0.1 0 0.03c0.01,-0.01 0,0 0.01,-0.01 0.03,-0.05 0,-0.02 0.05,-0.08 0.01,-0.02 0.05,-0.07 0.05,-0.09 -0.02,0.01 -0.04,0.04 -0.06,0.06 -0.04,0.04 -0.02,0.03 -0.04,0.08 -0.01,-0.02 0,-0.02 -0.01,-0.03 -0.05,0.07 -0.11,0.19 -0.14,0.27 -0.01,0.03 -0.01,0.08 -0.02,0.09 -0.01,0.01 0,0 -0.01,-0.01 -0.02,0.03 -0.04,0.04 -0.05,0.05 -0.01,0 0,0 -0.01,0 -0.01,0 0,0 -0.01,-0.01 -0.09,0.06 -0.15,-0.09 -0.13,-0.13 0.02,0 0.02,0.02 0.03,0.04 0.02,-0.01 0.05,-0.02 0.06,-0.03l-0.01 -0.01c0,0 -0.01,0 -0.02,0 0.02,-0.04 0.04,-0.06 0.05,-0.1 0.01,-0.07 0.01,-0.07 0.04,-0.12l-0.03 0.01c0.01,-0.09 0.15,-0.18 0.2,-0.27 -0.01,0 0,0 -0.01,0l-0.01 0c0.01,-0.07 0.06,-0.12 0.11,-0.14 -0.01,-0.01 -0.03,-0.02 -0.04,-0.02 0.02,-0.02 0.16,-0.05 0.19,-0.05l0.03 -0.03 0 -0.04 -0.02 0.01 0.02 -0.04 -0.01 0 0.08 -0.14 0.16 -0.12 0.02 0 -0.01 0.13 0.09 0.07 0.06 0.15 -0.02 0 0.01 0.02 -0.03 0.04 -0.05 0 0.04 0.01 -0.04 0.02 -0.07 -0.01 0 0.05c0.01,0.02 0.02,0.04 0.03,0.06 0.03,0.05 -0.01,0.03 0,0.09 0.01,0.08 0.05,0.1 0.12,0.1 0,0.03 -0.01,0.03 -0.03,0.04 0.02,0.07 0.05,0.19 0.1,0.2l-0.02 0.02c0.05,0.06 0.11,0.09 0.1,0.16 -0.01,0.02 -0.01,0.05 -0.02,0.07 -0.01,0 0,0 -0.01,0 -0.02,-0.03 0,-0.06 -0.01,-0.09 -0.02,0.01 -0.01,0.01 -0.02,0.03 0,0.01 0,0.02 0,0.03 -0.02,-0.01 -0.02,-0.01 -0.02,-0.04 -0.01,-0.02 -0.02,-0.02 -0.03,-0.03l-0.01 0.02c-0.01,-0.02 -0.03,-0.05 -0.05,-0.06 -0.01,0.01 -0.01,0.03 -0.02,0.04 -0.02,-0.04 -0.01,-0.04 -0.05,-0.07 -0.02,-0.02 -0.03,-0.04 -0.05,-0.06l-0.01 0.01c-0.01,0.01 -0.01,0.01 -0.01,0.01l-0.03 -0.09 0.02 0.01c0,-0.05 -0.02,-0.05 -0.05,-0.07 0,0 0,-0.01 0.01,-0.01l-0.01 -0.03c-0.02,0.05 -0.04,0.12 -0.04,0.16 -0.01,0 -0.01,-0.01 -0.03,-0.02 0.02,0.03 0.08,0.11 0.1,0.13 0,0.01 -0.01,0.01 -0.01,0.01 0.03,0.03 0.13,0.11 0.14,0.15 -0.01,0.01 -0.01,0.02 -0.03,0.02 0.02,0.06 0.03,0.04 0.03,0.13 0.01,0.03 0.02,0.12 0.01,0.15l-0.02 -0.02c-0.02,0.11 0,0.13 0,0.15 0,0.01 0,0 0,0.01l-0.01 0c-0.01,0.03 0.07,0.07 0.09,0.09 0.01,0.01 0.02,0.02 0.03,0.02 0.04,-0.01 0.09,-0.13 0.11,-0.18l-0.11 0.02c0.01,-0.01 0.02,-0.03 0.04,-0.04 0.03,-0.05 0.07,-0.1 0.1,-0.15l-0.08 0.02c0.02,-0.04 0.04,-0.06 0.07,-0.12 0.02,-0.03 0.05,-0.1 0.06,-0.13l-0.08 0.02c0.06,-0.05 0.1,-0.15 0.12,-0.17 0.02,0.04 0.04,0.09 0.07,0.13 0.01,0.02 0.03,0.03 0.04,0.04l-0.08 -0.02c0.02,0.06 0.09,0.2 0.13,0.25l-0.07 -0.03c0.01,0.05 0.1,0.17 0.12,0.19 0.02,-0.01 0.03,-0.03 0.04,-0.05l-0.06 0.01c0.02,-0.03 0.08,-0.1 0.1,-0.18l-0.06 0.02c0.03,-0.03 0.06,-0.09 0.08,-0.13 0.02,0.01 0.03,0.04 0.04,0.06 0.02,0.03 0.03,0.04 0.05,0.06l-0.06 -0.01c0.02,0.04 0.04,0.09 0.07,0.13 0,0.02 0.01,0.04 0.03,0.04 0.04,-0.06 0.09,-0.22 0.1,-0.31 0.16,-0.79 -0.43,-1.58 -1.31,-1.56 -0.85,0.02 -1.43,0.84 -1.23,1.61 0.01,0.07 0.08,0.28 0.12,0.31zm1.4 -1.48l0.07 -0.13 -0.01 0.12 -0.06 0.01z"/>
 </g>
</svg>
