<?xml version="1.0" encoding="UTF-8"?>
<!DOCTYPE svg PUBLIC "-//W3C//DTD SVG 1.1//EN" "http://www.w3.org/Graphics/SVG/1.1/DTD/svg11.dtd">
<!-- Creator: CorelDRAW 2019 (64-Bit) -->
<svg xmlns="http://www.w3.org/2000/svg" xml:space="preserve" width="200px" height="201px" version="1.1" style="shape-rendering:geometricPrecision; text-rendering:geometricPrecision; image-rendering:optimizeQuality; fill-rule:evenodd; clip-rule:evenodd"
viewBox="0 0 2033.63 2046.34"
 xmlns:xlink="http://www.w3.org/1999/xlink">
 <defs>
  <style type="text/css">
   <![CDATA[
    .fil0 {fill:#EEEEEE}
    .fil1 {fill:#EEEEEE;fill-rule:nonzero}
   ]]>
  </style>
 </defs>
 <g id="Capa_x0020_1">
  <metadata id="CorelCorpID_0Corel-Layer"/>
  <g id="_2745936123968">
   <path class="fil0" d="M38.64 2015.74l-6.98 -99.64c-8.12,30.39 -12.77,88.09 -7.15,120.18 164.4,0.08 331.16,8.33 497.73,8.86l1511.39 1.2c-2.48,-338.89 -15.6,-676.37 -12.81,-1015.26l-1.31 -754.72c-0.7,-47.64 2.56,-204.31 -21.66,-236.5 -19.47,141.83 -9.95,341.03 -9.98,490.24 -0.03,162.88 -0.7,325.47 2.48,487.95 6.39,327.14 -1.72,660.65 -2.86,987.17l-1948.85 10.52z"/>
   <path class="fil0" d="M31.45 1706.55c16.92,-274.39 0.31,-550.45 3.21,-825.11 2.96,-280.31 -3.83,-560.75 -3.57,-840.87 164.25,0.16 333.77,1.67 497.66,-3.58 167.68,-5.38 319.13,-14.5 487.71,-11.29 136.94,2.6 926.72,18.58 1000.09,-4.65 -73.97,-40.31 -847.97,-11.11 -993.32,-6.81 -170.92,5.05 -336.97,-0.25 -507.49,-5.72 -173.83,-5.57 -342.54,1.11 -515.73,0.97 -0.16,286.85 8.23,572.16 7.71,858.94 -0.12,70.24 8.38,137.25 8.22,208.2 -0.28,127.81 -9.81,560.61 15.51,629.92z"/>
  </g>
  <g id="_2745752748384">
   <polygon class="fil1" points="523.57,631.44 523.57,552.49 877.49,359.94 877.49,444.66 597.05,592.45 877.49,742.15 877.49,826.88 "/>
   <path id="brush-svgrepo-com.svg" class="fil0" d="M1125.55 404.99c-9.1,34.2 -33.84,128.45 -53.48,203.36l-82.78 -31.6c30.38,-68.89 68.02,-154.07 81.7,-184.67 24.33,-54.47 50.29,-92.11 62.03,-86.93 7.07,2.61 8.47,39.84 -7.47,99.84zm-57.85 219.95c-7.62,29 -14.17,53.97 -18.16,69.27l-96.76 -34.69c6.44,-14.61 17.18,-38.94 29.63,-67.13l85.29 32.55 0 0zm-22.56 86.05l-0.08 -0.18c29.21,166.89 -182.67,160 -182.67,160 0,0 76.64,-23.95 45.78,-91.54 -29.91,-65.53 33.99,-101.86 37.94,-104.02l99.09 35.52c0.01,0.01 -0.06,0.22 -0.06,0.22l0 0z"/>
   <polygon class="fil1" points="1510.07,631.44 1510.07,552.49 1156.14,359.94 1156.14,444.66 1436.58,592.45 1156.14,742.15 1156.14,826.88 "/>
  </g>
  <path class="fil1" d="M735.45 1298.68c-20.89,43.56 -50.69,76.81 -89.42,99.61 -38.59,22.93 -84.32,34.39 -137.06,34.39 -34.13,0 -65.72,-4.84 -94.76,-14.52 -29.17,-9.68 -55.28,-24.07 -78.46,-42.92 -31.08,-25.1 -54.39,-54.4 -69.93,-87.9 -15.54,-33.49 -23.31,-70.56 -23.31,-111.32 0,-77.7 25.35,-141.26 75.91,-190.93 50.7,-49.55 115.79,-74.39 195.4,-74.39 45.73,0 85.59,9.17 119.6,27.39 33.88,18.34 63.3,46.62 88.27,84.83l-63.43 46.74c-15.16,-32.35 -33.76,-56.68 -55.54,-72.86 -21.91,-16.17 -46.87,-24.2 -75.02,-24.2 -43.05,0 -76.3,17.33 -99.99,52.1 -23.56,34.64 -35.41,83.68 -35.41,147.12 0,58.46 13.5,105.59 40.63,141.38 27.14,35.79 62.67,53.76 106.74,53.76 27.77,0 53.12,-9.05 76.05,-27.01 22.92,-18.09 42.92,-44.71 59.99,-80.11l59.74 38.84z"/>
  <polygon id="1" class="fil1" points="1103.94,1134.63 1103.94,921.4 1243.8,921.4 1243.8,1420.45 1103.94,1420.45 1103.94,1201.88 954.15,1201.88 954.15,1420.45 814.29,1420.45 814.29,921.4 954.15,921.4 954.15,1134.63 "/>
  <path id="2" class="fil1" d="M1444.16 1209.52l123.17 0 -64.58 -178.84 -58.59 178.84zm-142.15 210.93l171.32 -499.05 135.01 0 182.79 499.05 -148.52 0 -52.61 -147.5 -167.49 0 -49.55 147.5 -70.95 0z"/>
  <path class="fil1" d="M244.02 1717.73l0 -129.6 44.64 0c10.08,0 17.77,0.6 23.08,1.84 7.42,1.72 13.76,4.83 19.01,9.29 6.85,5.79 11.94,13.15 15.32,22.14 3.41,8.99 5.1,19.28 5.1,30.83 0,9.84 -1.14,18.56 -3.44,26.16 -2.29,7.6 -5.25,13.91 -8.84,18.89 -3.62,4.97 -7.54,8.89 -11.82,11.73 -4.26,2.86 -9.42,5.04 -15.45,6.51 -6.06,1.48 -13,2.21 -20.84,2.21l-46.76 0zm17.19 -15.21l27.63 0c8.54,0 15.24,-0.78 20.09,-2.38 4.86,-1.6 8.72,-3.83 11.62,-6.73 4.04,-4.07 7.21,-9.56 9.47,-16.44 2.27,-6.88 3.41,-15.2 3.41,-25.01 0,-13.57 -2.23,-24.01 -6.67,-31.31 -4.43,-7.3 -9.83,-12.19 -16.19,-14.66 -4.59,-1.78 -11.98,-2.65 -22.18,-2.65l-27.18 0 0 99.18z"/>
  <path id="1" class="fil1" d="M427.05 1606.23l0 -18.1 15.93 0 0 18.1 -15.93 0zm0 111.5l0 -93.94 15.93 0 0 93.94 -15.93 0z"/>
  <path id="2" class="fil1" d="M515.25 1689.67l15.75 -2.53c0.88,6.3 3.35,11.13 7.39,14.51 4.04,3.35 9.71,5.04 16.95,5.04 7.34,0 12.76,-1.48 16.32,-4.47 3.54,-2.96 5.31,-6.45 5.31,-10.47 0,-3.58 -1.59,-6.42 -4.76,-8.47 -2.23,-1.42 -7.67,-3.2 -16.29,-5.4 -11.65,-2.93 -19.7,-5.46 -24.23,-7.6 -4.49,-2.18 -7.9,-5.14 -10.23,-8.94 -2.31,-3.77 -3.49,-7.96 -3.49,-12.54 0,-4.2 0.96,-8.06 2.86,-11.62 1.93,-3.56 4.53,-6.52 7.82,-8.87 2.47,-1.81 5.85,-3.35 10.1,-4.61 4.28,-1.27 8.84,-1.91 13.73,-1.91 7.36,0 13.82,1.06 19.36,3.2 5.59,2.11 9.69,5.01 12.34,8.63 2.63,3.65 4.47,8.51 5.46,14.6l-15.56 2.18c-0.7,-4.89 -2.75,-8.72 -6.13,-11.47 -3.38,-2.74 -8.14,-4.1 -14.32,-4.1 -7.28,0 -12.49,1.2 -15.6,3.62 -3.11,2.41 -4.68,5.25 -4.68,8.48 0,2.05 0.63,3.92 1.93,5.57 1.3,1.7 3.32,3.11 6.1,4.23 1.59,0.6 6.24,1.96 14.02,4.07 11.23,2.99 19.07,5.46 23.54,7.36 4.46,1.9 7.96,4.71 10.49,8.33 2.57,3.65 3.83,8.18 3.83,13.6 0,5.28 -1.53,10.26 -4.64,14.94 -3.11,4.68 -7.58,8.3 -13.39,10.86 -5.86,2.56 -12.46,3.83 -19.83,3.83 -12.18,0 -21.51,-2.53 -27.9,-7.57 -6.4,-5.07 -10.47,-12.55 -12.25,-22.48z"/>
  <path id="3" class="fil1" d="M730.48 1687.32l16.47 2.17c-2.56,9.56 -7.36,17.02 -14.36,22.29 -7,5.28 -15.93,7.94 -26.82,7.94 -13.69,0 -24.56,-4.23 -32.58,-12.67 -8.03,-8.42 -12.04,-20.27 -12.04,-35.51 0,-15.75 4.04,-28 12.16,-36.68 8.12,-8.72 18.65,-13.07 31.59,-13.07 12.52,0 22.74,4.26 30.68,12.8 7.93,8.53 11.92,20.54 11.92,36.02 0,0.93 -0.04,2.35 -0.1,4.22l-69.96 0c0.61,10.29 3.5,18.19 8.75,23.65 5.22,5.46 11.77,8.21 19.58,8.21 5.82,0 10.8,-1.54 14.9,-4.62 4.14,-3.08 7.39,-7.99 9.81,-14.75zm-52.13 -25.52l52.31 0c-0.69,-7.9 -2.72,-13.82 -6.01,-17.77 -5.03,-6.12 -11.61,-9.2 -19.66,-9.2 -7.3,0 -13.43,2.44 -18.41,7.33 -4.94,4.89 -7.69,11.43 -8.23,19.64z"/>
  <path id="4" class="fil1" d="M821.39 1717.73l0 -93.94 14.3 0 0 13.33c6.88,-10.23 16.83,-15.33 29.83,-15.33 5.68,0 10.87,1.03 15.6,3.05 4.74,2.02 8.3,4.71 10.65,8 2.36,3.29 4.01,7.21 4.95,11.73 0.57,2.96 0.88,8.12 0.88,15.48l0 57.68 -15.93 0 0 -57.08c0,-6.48 -0.61,-11.34 -1.84,-14.54 -1.24,-3.2 -3.44,-5.76 -6.58,-7.69 -3.14,-1.9 -6.85,-2.87 -11.07,-2.87 -6.76,0 -12.58,2.15 -17.5,6.46 -4.92,4.28 -7.36,12.46 -7.36,24.47l0 51.25 -15.93 0zm11.04 -105.35c-0.06,-6.06 1.63,-10.89 5.04,-14.51 3.35,-3.59 7.66,-5.4 12.91,-5.4 3.65,0 8.63,1.54 14.9,4.65 3.48,1.72 6.25,2.59 8.3,2.59 1.9,0 3.35,-0.51 4.34,-1.53 1,-1 1.69,-3.05 2.12,-6.07l11.4 0c-0.18,6.7 -1.87,11.71 -5.07,15.06 -3.2,3.34 -7.24,5.03 -12.19,5.03 -3.68,0 -8.57,-1.66 -14.59,-4.94 -3.96,-2.15 -6.86,-3.2 -8.69,-3.2 -2,0 -3.62,0.69 -4.83,2.11 -1.3,1.39 -1.93,3.47 -1.87,6.21l-11.77 0z"/>
  <path id="5" class="fil1" d="M970.41 1670.76c0,-17.35 4.83,-30.2 14.51,-38.56 8.05,-6.93 17.91,-10.41 29.53,-10.41 12.88,0 23.44,4.23 31.65,12.68 8.17,8.41 12.27,20.09 12.27,34.96 0,12.07 -1.8,21.54 -5.43,28.45 -3.62,6.91 -8.89,12.28 -15.84,16.11 -6.9,3.83 -14.47,5.73 -22.65,5.73 -13.15,0 -23.77,-4.2 -31.89,-12.61 -8.11,-8.42 -12.15,-20.55 -12.15,-36.35zm16.29 0.03c0,12 2.62,21 7.87,26.94 5.28,5.97 11.89,8.96 19.88,8.96 7.91,0 14.48,-2.99 19.76,-8.99 5.25,-6.01 7.87,-15.15 7.87,-27.42 0,-11.59 -2.65,-20.37 -7.93,-26.31 -5.28,-5.97 -11.85,-8.96 -19.7,-8.96 -7.99,0 -14.6,2.96 -19.88,8.9 -5.25,5.94 -7.87,14.9 -7.87,26.88z"/>
  <path id="6" class="fil1" d="M1350.82 1717.73l-34.12 -129.6 17.8 0 19.43 84.98c2.11,8.9 3.98,17.74 5.58,26.49 3.41,-13.82 5.4,-21.79 5.97,-23.89l24.5 -87.58 20.66 0 18.59 65.61c4.55,16.29 7.93,31.59 10.1,45.86 1.72,-8.18 3.92,-17.56 6.61,-28.15l20.24 -83.32 17.22 0 -35.47 129.6 -16.69 0 -27.17 -98.74c-2.3,-8.27 -3.68,-13.34 -4.2,-15.2 -1.48,5.91 -2.8,10.98 -3.95,15.17l-27.18 98.77 -17.92 0z"/>
  <path id="7" class="fil1" d="M1612.44 1687.32l16.48 2.17c-2.57,9.56 -7.37,17.02 -14.36,22.29 -7,5.28 -15.93,7.94 -26.82,7.94 -13.7,0 -24.56,-4.23 -32.58,-12.67 -8.03,-8.42 -12.04,-20.27 -12.04,-35.51 0,-15.75 4.04,-28 12.16,-36.68 8.11,-8.72 18.64,-13.07 31.58,-13.07 12.52,0 22.75,4.26 30.68,12.8 7.94,8.53 11.92,20.54 11.92,36.02 0,0.93 -0.03,2.35 -0.09,4.22l-69.96 0c0.61,10.29 3.5,18.19 8.75,23.65 5.22,5.46 11.76,8.21 19.58,8.21 5.82,0 10.8,-1.54 14.9,-4.62 4.14,-3.08 7.39,-7.99 9.8,-14.75zm-52.12 -25.52l52.31 0c-0.7,-7.9 -2.72,-13.82 -6.01,-17.77 -5.04,-6.12 -11.61,-9.2 -19.67,-9.2 -7.3,0 -13.42,2.44 -18.4,7.33 -4.95,4.89 -7.69,11.43 -8.23,19.64z"/>
  <path id="8" class="fil1" d="M1718.02 1717.73l-14.84 0 0 -129.6 15.93 0 0 46.25c6.72,-8.39 15.29,-12.59 25.73,-12.59 5.76,0 11.25,1.15 16.41,3.48 5.16,2.32 9.38,5.6 12.73,9.8 3.32,4.22 5.94,9.29 7.81,15.24 1.9,5.9 2.84,12.27 2.84,19.03 0,16.05 -3.99,28.48 -11.92,37.23 -7.96,8.77 -17.5,13.15 -28.62,13.15 -11.08,0 -19.77,-4.62 -26.07,-13.82l0 11.83zm-0.18 -47.67c0,11.23 1.54,19.34 4.59,24.35 5,8.17 11.76,12.28 20.3,12.28 6.96,0 12.97,-3.02 18.01,-9.05 5.07,-6.04 7.6,-15.03 7.6,-26.97 0,-12.25 -2.41,-21.27 -7.27,-27.1 -4.86,-5.81 -10.74,-8.74 -17.62,-8.74 -6.97,0 -12.97,3.02 -18.01,9.05 -5.07,6.03 -7.6,14.75 -7.6,26.18z"/>
  <path id="9" class="fil1" d="M1125.03 1689.67l15.75 -2.53c0.88,6.3 3.35,11.13 7.39,14.51 4.04,3.35 9.71,5.04 16.95,5.04 7.34,0 12.76,-1.48 16.33,-4.47 3.53,-2.96 5.3,-6.45 5.3,-10.47 0,-3.58 -1.59,-6.42 -4.76,-8.47 -2.23,-1.42 -7.67,-3.2 -16.29,-5.4 -11.65,-2.93 -19.7,-5.46 -24.23,-7.6 -4.49,-2.18 -7.9,-5.14 -10.23,-8.94 -2.31,-3.77 -3.49,-7.96 -3.49,-12.54 0,-4.2 0.96,-8.06 2.86,-11.62 1.93,-3.56 4.53,-6.52 7.82,-8.87 2.47,-1.81 5.85,-3.35 10.1,-4.61 4.28,-1.27 8.84,-1.91 13.73,-1.91 7.36,0 13.82,1.06 19.37,3.2 5.58,2.11 9.68,5.01 12.34,8.63 2.62,3.65 4.46,8.51 5.45,14.6l-15.56 2.18c-0.7,-4.89 -2.75,-8.72 -6.13,-11.47 -3.38,-2.74 -8.14,-4.1 -14.32,-4.1 -7.28,0 -12.49,1.2 -15.6,3.62 -3.11,2.41 -4.68,5.25 -4.68,8.48 0,2.05 0.64,3.92 1.93,5.57 1.3,1.7 3.32,3.11 6.1,4.23 1.59,0.6 6.24,1.96 14.02,4.07 11.23,2.99 19.07,5.46 23.54,7.36 4.46,1.9 7.96,4.71 10.49,8.33 2.57,3.65 3.83,8.18 3.83,13.6 0,5.28 -1.53,10.26 -4.64,14.94 -3.11,4.68 -7.57,8.3 -13.39,10.86 -5.86,2.56 -12.46,3.83 -19.83,3.83 -12.18,0 -21.51,-2.53 -27.9,-7.57 -6.4,-5.07 -10.47,-12.55 -12.25,-22.48z"/>
  <g id="_2745752752608">
   <path class="fil0" d="M1783.81 106.7l33.7 0.04 -0.32 34.14 -33.69 -0.06 0.31 -34.12zm-15.69 41.84c2.32,9.87 14.35,8.03 24.99,8.03 7,0 26.41,0.87 31.99,-0.39 10.29,-2.31 8.12,-13.72 8.12,-24.49 -0.01,-41.48 4.35,-40.68 -25.36,-40.68 -40.45,0 -40.05,-4.29 -40.05,24.88 0,6.55 -0.85,27.73 0.31,32.65z"/>
   <path class="fil0" d="M1919.98 123.64c4.51,-3.62 9.33,-9.13 13.75,-13.55 2.97,-2.97 11.63,-9.66 5.88,-16.36 -8.72,-10.14 -18.61,9.52 -30.63,18.35 -6.41,-4.31 -20.28,-24.98 -28.81,-20.38 -8.03,8.85 -2.8,11.51 3.02,17.32 4.24,4.25 9.93,10.76 14.26,14.02 -1.96,4.43 -10.43,11.63 -14.27,15.5 -5.73,5.78 -11.09,8.49 -3.01,17.32 8.52,4.6 22.39,-16.05 28.81,-20.38 11.55,8.34 23.1,29.65 31.08,17.75 5.37,-7.99 -10.93,-20.61 -20.08,-29.59z"/>
   <path class="fil0" d="M1659.72 125.37c1.76,10.07 24.67,6.3 34.38,6.3 10.51,0 32.56,4.12 30.57,-9.29 -1.38,-9.35 -19.86,-6.46 -34.78,-6.46 -9.61,0 -32.54,-4.01 -30.17,9.45z"/>
  </g>
 </g>
</svg>
