<?xml version="1.0" encoding="UTF-8"?>
<!DOCTYPE svg PUBLIC "-//W3C//DTD SVG 1.1//EN" "http://www.w3.org/Graphics/SVG/1.1/DTD/svg11.dtd">
<!-- Creator: CorelDRAW 2019 (64-Bit) -->
<svg xmlns="http://www.w3.org/2000/svg" xml:space="preserve" width="40px" height="40px" version="1.1" style="shape-rendering:geometricPrecision; text-rendering:geometricPrecision; image-rendering:optimizeQuality; fill-rule:evenodd; clip-rule:evenodd"
viewBox="0 0 31.68 31.68"
 xmlns:xlink="http://www.w3.org/1999/xlink">
 <defs>
  <style type="text/css">
   <![CDATA[
    .fil1 {fill:#FEFEFE}
    .fil0 {fill:#009846}
   ]]>
  </style>
 </defs>
 <g id="Capa_x0020_1">
  <metadata id="CorelCorpID_0Corel-Layer"/>
  <path class="fil0" d="M3.05 0l25.58 0c1.68,0 3.05,1.37 3.05,3.05l0 25.58c0,1.68 -1.37,3.05 -3.05,3.05l-25.58 0c-1.68,0 -3.05,-1.37 -3.05,-3.05l0 -25.58c0,-1.68 1.37,-3.05 3.05,-3.05z"/>
  <g id="_1956840354592">
   <path class="fil1" d="M17.12 18.57c0.84,-0.85 1.95,-1.28 3.08,-1.28 2.41,0 4.35,1.95 4.35,4.36 0,0.2 -0.01,0.41 -0.04,0.62l1.44 0.19c0.03,-0.27 0.05,-0.54 0.05,-0.81 0,-1.6 -0.65,-3.06 -1.69,-4.11 -1.05,-1.05 -2.51,-1.7 -4.11,-1.7 -1.49,0 -2.98,0.57 -4.11,1.7l1.03 1.03 0 0z"/>
   <path class="fil1" d="M23.28 24.73c-0.85,0.85 -1.96,1.27 -3.08,1.27 -2.42,0 -4.36,-1.95 -4.36,-4.35 0,-0.2 0.02,-0.41 0.04,-0.62l-1.43 -0.2c-0.04,0.28 -0.06,0.55 -0.06,0.82 0,1.6 0.65,3.05 1.7,4.1 1.04,1.05 2.5,1.7 4.1,1.7 1.49,0 2.98,-0.57 4.11,-1.69l-1.02 -1.03 0 0z"/>
   <path class="fil1" d="M23.31 21.44l1.45 1.45c0.14,0.13 0.33,0.21 0.52,0.21 0.19,0 0.38,-0.08 0.51,-0.21l1.45 -1.45c0.29,-0.29 0.29,-0.75 0,-1.03 -0.28,-0.29 -0.74,-0.29 -1.02,0l-0.94 0.94 -0.94 -0.94c-0.28,-0.29 -0.74,-0.29 -1.03,0 -0.28,0.28 -0.28,0.74 0,1.03l0 0z"/>
   <path class="fil1" d="M14.17 22.89l0.94 -0.94 0.94 0.94c0.29,0.28 0.75,0.28 1.03,0 0.28,-0.29 0.28,-0.75 0,-1.03l-1.45 -1.45c-0.29,-0.29 -0.75,-0.29 -1.03,0l-1.45 1.45c-0.29,0.28 -0.29,0.74 0,1.03 0.28,0.28 0.74,0.28 1.02,0l0 0z"/>
   <polygon class="fil1" points="17.12,18.57 17.12,18.57 "/>
   <path class="fil1" d="M20.92 7.13l-3.63 0 0 -0.73c0,-1.2 -0.97,-2.18 -2.18,-2.18l-2.9 0c-1.2,0 -2.18,0.98 -2.18,2.18l0 0.73 -3.63 0c-1.2,0 -2.18,0.97 -2.18,2.18 0,0.94 0,1.74 1.46,2.04l0 13.93c0,1.2 0.97,2.18 2.17,2.18l6.54 0 0 -1.46 -6.54 0c-0.4,0 -0.72,-0.32 -0.72,-0.72l0 -13.8 13.07 0 0 2.91 1.45 0 0 -3.04c1.45,-0.3 1.45,-1.1 1.45,-2.04 0,-1.21 -0.98,-2.18 -2.18,-2.18zm-9.44 -0.73c0,-0.4 0.33,-0.72 0.73,-0.72l2.9 0c0.4,0 0.73,0.32 0.73,0.72l0 0.73 -4.36 0 0 -0.73zm9.44 3.63l-14.52 0c-0.4,0 -0.72,-0.32 -0.73,-0.72 0.01,-0.41 0.33,-0.73 0.73,-0.73l3.63 0 7.26 0 3.63 0c0.4,0 0.73,0.32 0.73,0.73 0,0.4 -0.33,0.72 -0.73,0.72z"/>
   <rect class="fil1" x="12.94" y="14.39" width="1.45" height="4.36"/>
   <rect class="fil1" x="8.58" y="14.39" width="1.45" height="8.71"/>
  </g>
 </g>
</svg>
