<?xml version="1.0" encoding="UTF-8"?>
<!DOCTYPE svg PUBLIC "-//W3C//DTD SVG 1.1//EN" "http://www.w3.org/Graphics/SVG/1.1/DTD/svg11.dtd">
<!-- Creator: CorelDRAW 2019 (64-Bit) -->
<svg xmlns="http://www.w3.org/2000/svg" xml:space="preserve" width="40px" height="40px" version="1.1" style="shape-rendering:geometricPrecision; text-rendering:geometricPrecision; image-rendering:optimizeQuality; fill-rule:evenodd; clip-rule:evenodd"
viewBox="0 0 33.01 33.01"
 xmlns:xlink="http://www.w3.org/1999/xlink">
 <defs>
  <style type="text/css">
   <![CDATA[
    .fil0 {fill:#009846}
    .fil1 {fill:#FEFEFE}
   ]]>
  </style>
 </defs>
 <g id="Capa_x0020_1">
  <metadata id="CorelCorpID_0Corel-Layer"/>
  <g id="_1485482352-whatsapp_78680.svg">
   <g id="Layer_x0020_1">
    <g id="_521245888">
     <path class="fil0" d="M3.18 0l26.66 0c1.75,0 3.17,1.42 3.17,3.18l0 26.66c0,1.75 -1.42,3.17 -3.17,3.17l-26.66 0c-1.76,0 -3.18,-1.42 -3.18,-3.17l0 -26.66c0,-1.76 1.42,-3.18 3.18,-3.18z"/>
     <g>
      <path class="fil1" d="M16.77 25.78c-1.94,0 -3.88,-0.53 -5.47,-1.59l-3.71 1.23 1.24 -3.53c-1.06,-1.59 -1.77,-3.53 -1.77,-5.65 0,-0.35 0,-0.7 0,-0.88 0.53,-4.94 4.59,-8.83 9.71,-8.83 5.12,0 9.18,3.89 9.71,9.01 0,0.17 0,0.35 0,0.7 0,5.3 -4.41,9.54 -9.71,9.54l0 0zm11.48 -9.89c-0.18,-6.18 -5.3,-11.12 -11.48,-11.12 -6.18,0 -11.3,4.76 -11.65,10.94 0,0.18 0,0.36 0,0.53 0,2.12 0.71,4.24 1.77,5.83l-2.12 6.18 6.35 -1.94c1.59,0.88 3.53,1.41 5.65,1.41 6.36,0 11.48,-5.12 11.48,-11.48 0,-0.17 0,-0.17 0,-0.35l0 0z"/>
      <path class="fil1" d="M22.07 18.54c-0.35,-0.18 -1.77,-0.89 -1.94,-0.89 -0.36,-0.17 -0.53,-0.17 -0.71,0.18 -0.18,0.18 -0.71,0.88 -0.88,1.06 -0.18,0.18 -0.36,0.18 -0.53,0 -0.36,-0.18 -1.24,-0.35 -2.3,-1.41 -0.88,-0.71 -1.41,-1.59 -1.59,-1.94 -0.17,-0.18 0,-0.36 0,-0.53 0.18,-0.18 0.36,-0.36 0.53,-0.53 0,0 0,0 0,-0.18 0.18,0 0.18,-0.18 0.18,-0.18 0.18,-0.35 0.18,-0.35 0,-0.53 0,-0.17 -0.53,-1.58 -0.88,-2.11 -0.18,-0.53 -0.36,-0.53 -0.53,-0.53 -0.18,0 -0.36,0 -0.53,0 -0.18,0 -0.53,0.17 -0.88,0.35 -0.18,0.35 -0.89,1.06 -0.89,2.29 0,0.36 0,0.71 0.18,1.06 0.18,0.89 0.88,1.77 0.88,1.95 0.18,0.17 1.94,3.17 4.95,4.23 2.82,1.06 2.82,0.71 3.35,0.71 0.53,0 1.77,-0.71 1.94,-1.41 0.18,-0.53 0.18,-1.24 0.18,-1.24 -0.18,-0.18 -0.35,-0.18 -0.53,-0.35l0 0z"/>
     </g>
    </g>
   </g>
  </g>
 </g>
</svg>
